<svg xmlns="http://www.w3.org/2000/svg" viewBox="0 0 255.86 55.11"><defs><style>.cls-1{fill:#60271b;}.cls-2{fill:#7e3723;}.cls-3{fill:#aed2ee;}.cls-4{fill:#afd4f0;}.cls-5{fill:#a9583e;}.cls-6{fill:#9a4732;}.cls-7{fill:#9e4733;}.cls-8{fill:#456134;}.cls-9{fill:#3b3938;}.cls-10{fill:#f9eba1;}.cls-11{fill:#c4b43f;}.cls-12{fill:#4e4846;}.cls-13{fill:#f6d64e;}.cls-14{fill:#92c66d;}.cls-15{fill:#6a6d70;}.cls-16{fill:#745b43;}.cls-17{fill:#763424;}.cls-18{fill:#e74e46;}.cls-19{fill:#d5dde5;}.cls-20{fill:#8fc26a;}.cls-21{fill:#57585a;}.cls-22{fill:#fdfdfd;}.cls-23{fill:#76a352;}.cls-24{fill:#ef4f47;}.cls-25{fill:#c54d44;}.cls-26{fill:#d8e1ea;}.cls-27{fill:#b4b9bd;}.cls-28{fill:#abb0b3;}.cls-29{fill:#8fa1ae;}.cls-30{fill:#c4ccd5;}.cls-31{fill:#ef0000;}.cls-32{fill:#c11;}.cls-33{fill:#0a4f18;}</style></defs><title>union-logo-2</title><g id="Layer_6" data-name="Layer 6"><path class="cls-1" d="M112.88,40.65c1.75,1.2,2,1.84,1.5,3.37H73.31c-.33-1.49-1.53-1-2.44-1-.34,0-.66.64-1,1l-23.25,0-.48-.55v-1l1.57-1.63.26-.24h0l9.77,0a4.86,4.86,0,0,0,1.39.47q21.31,0,42.61,0a6.23,6.23,0,0,0,1.6-.43Z" transform="translate(-1.14)"/><path class="cls-2" d="M76.74,55.11,76,53.34c.6-.23,1.19-.49,1.81-.67a1.9,1.9,0,0,1,1,0c.61.2,1.19.49,1.78.74l-1,1.7Z" transform="translate(-1.14)"/><path class="cls-3" d="M109.74,15.28c-.12,2.86-1,3.71-4,3.71h-4.46c-2.38,0-3.35,1.4-2.54,3.68.06.17.1.33.16.5l-.18.17-.91-.42h0l-.27-.27h0l-.27-.27h0l-.26-.27h0l-.27-.27h0l-.55-.53v0l-.46-.49-.37-.35-2.86-2.86h0l-.27-.27h0l-.79-.55h0l-.27-.27h0L91,16.33h0l-.27-.26h0l-.27-.27h0l-.76-.8,0,0c-.47-1.14-1.27-1.13-2.08-.49a23.91,23.91,0,0,0-2,1.94c-.52.05-1,.13-1.55.13h-12l-.62-1.41h0c1,0,1.14-.7,1.14-1.48h29.69a4.93,4.93,0,0,0,1.11-.25l1.61,0c1.41.19,3-.27,4.16.88Z" transform="translate(-1.14)"/><path class="cls-2" d="M81.74,50.12c-6.14,0-12.27,0-18.41,0-2.16,0-3.08-.76-3.41-2.63,4.87,0,9.74,0,14.6,0,2.18,0,3.32-.46,3.56-2.06h7.34c.31,1.49,1,2.07,2.67,2.08H102c-.64,2-1.44,2.64-3.55,2.64H97.05a2,2,0,0,0-2.15-1.34q-5.5,0-11,0A2,2,0,0,0,81.74,50.12Zm-2.63-2.46c.21,1.11,1,.83,1.63.81.16,0,.3-.33.45-.51-.48-.16-1-.36-1.43-.47C79.59,47.45,79.38,47.59,79.11,47.66Z" transform="translate(-1.14)"/><path class="cls-4" d="M102.6,10.59a8.75,8.75,0,0,0-1.48-.28c-6.62,0-13.25,0-19.87,0-1.35,0-2.31-.68-2.26-1.59s.9-1.6,2.32-1.6h21.18a11.78,11.78,0,0,0,1.65-.26l1.51.31a2,2,0,0,1,.59,2.37c-.44,1-1.38,1.08-2.3,1.13Z" transform="translate(-1.14)"/><path class="cls-5" d="M85.42,45.38H78.08q-11.35,0-22.7,0a4.33,4.33,0,0,0-1.08.29c-1.28-.1-2.55-.21-3.83-.28a9.31,9.31,0,0,1-2.19-.08,6.16,6.16,0,0,1-1.65-1.24l23.25,0c.15,1.09,1,1,1.78,1.06S73.17,45,73.31,44h41.07a2.19,2.19,0,0,1-2.28,1.35c-.87,0-1.74,0-2.61,0Z" transform="translate(-1.14)"/><path class="cls-6" d="M85.42,45.38h24.07a2.72,2.72,0,0,1-2.8,1.92c-1.56,0-3.12.11-4.67.18H88.09C86.45,47.45,85.73,46.87,85.42,45.38Z" transform="translate(-1.14)"/><path class="cls-6" d="M54.3,45.66a4.33,4.33,0,0,1,1.08-.29q11.34,0,22.7,0c-.24,1.6-1.38,2-3.56,2.06-4.86.06-9.73,0-14.6,0-1.16-.06-2.31-.15-3.47-.18S54.51,46.87,54.3,45.66Z" transform="translate(-1.14)"/><path class="cls-7" d="M81.74,50.12a2,2,0,0,1,2.14-1.34q5.52,0,11,0a2,2,0,0,1,2.15,1.34,1.9,1.9,0,0,1-2.2,1.56q-5.46-.07-10.91,0A1.9,1.9,0,0,1,81.74,50.12Z" transform="translate(-1.14)"/><path class="cls-8" d="M103.35,24a20.28,20.28,0,0,1,1.06-2.38c.63-1.06,1.5-1.06,2.13,0a23.17,23.17,0,0,1,1,2.38c.18,1.69.37,3.37.56,5.05a9.81,9.81,0,0,1-.32,2.2,14,14,0,0,1-1.34,2.26c-.2.33-.66.83-.58.94.38.51.89,1.25,1.38,1.27,2.69.11,3.83,1.21,3.73,3.89l-7.83,0-2.74,0c0-.13,0-.27,0-.4l5.27-.13c.77.1,1.12-.2,1-1a3.78,3.78,0,0,0-2.38-3.5,4.23,4.23,0,0,0-3.94-.21l0-.68,3.29-.43-.74-1.58-.26-2.35Zm1.92,9V29.13l.34,0,.24,1.27.88-.22-1.07,2.61c1.34,0,1.55-.8,1.63-1.56a18.68,18.68,0,0,0-.79-8.4c-.17-.46-.68-.8-1-1.2a5,5,0,0,0-.94,1.16,18.2,18.2,0,0,0-.84,8.28A1.8,1.8,0,0,0,105.27,33Zm2,6.09c2.31.33,3.17.15,3.19-.55,0-1-1.38-2.47-2.4-2.22C106.31,36.74,107.94,38.16,107.23,39.08Z" transform="translate(-1.14)"/><path class="cls-4" d="M118.94,29c-.44,0-.88,0-1.31,0a2.54,2.54,0,0,1-2.4-2A2.39,2.39,0,0,1,117,24.12a15,15,0,0,1,4.23,0c1,.13,1.84,1.67,1.7,2.66a2.68,2.68,0,0,1-2.5,2.25C119.9,29,119.42,29,118.94,29Z" transform="translate(-1.14)"/><path class="cls-9" d="M61.93,34.49V29a2.71,2.71,0,0,0-.1-.36l-1.44-.22.26-.26.27,0h12.9L75,28l.46,0,1.58,0v.28l-.09,11.55-.55,0c0-.4,0-.8,0-1.2l-.71-.87,0-.53.51-.54-.56-.52,0-.52.6-.21,0-.23-.9.07H63.82v1.15l.22.42L63.81,38v.53a.32.32,0,0,0,0,.21c-.16-.36-.46-.72-.46-1.08,0-3,0-5.94,0-8.92l-.46-.19c-.19.33-.54.65-.54,1,0,3.42,0,6.85,0,10.27H62l-.08-.85,0-3.48Zm14-3.62.3-1c.37-.72.3-1.17-.65-1.16q-5.53,0-11.07,0c-.69,0-.87.25-.69.87v1.91H75.43l.86.2.11-.24Zm-.52,3.86,1-.57-1-.57c-3.68,0-7.36,0-11-.06-1,0-.81.56-.73,1.2Zm0-1.62c.55.12,1.16.22,1-.61,0-.24-.64-.37-1-.56H63.65c-.25.87-.08,1.24.81,1.23C68.1,33.12,71.74,33.13,75.37,33.11Z" transform="translate(-1.14)"/><path class="cls-3" d="M60.08,19a9.84,9.84,0,0,1-1.87-1.33,2.35,2.35,0,0,1,.68-3.49c1.48-.9,4.66-.74,5.63.39a8,8,0,0,1,.91,1.94l-5,.12Z" transform="translate(-1.14)"/><path class="cls-3" d="M108.15,29c-.19-1.68-.38-3.36-.56-5.05a17.84,17.84,0,0,1,2.93.08,2.62,2.62,0,0,1,1.92,2.64A2.67,2.67,0,0,1,109.85,29C109.28,29,108.72,29,108.15,29Z" transform="translate(-1.14)"/><path class="cls-10" d="M105.65,7.15l-1.51-.31a4.89,4.89,0,0,1,5.54-1.56A5.78,5.78,0,0,1,113.41,10a5.43,5.43,0,0,1-3.15,5.31,1.49,1.49,0,0,1-.52,0l-.58-1a8,8,0,0,0,1.61-.77,4.13,4.13,0,0,0,.54-5.71A3.92,3.92,0,0,0,105.65,7.15Z" transform="translate(-1.14)"/><path class="cls-8" d="M61.89,38.94c0,.28.06.57.08.85l-4.08,0-8.07-.18c-.1-2.68,1-3.82,3.76-3.84a1.23,1.23,0,0,0,.76-.32c2.64-2.52,4-2.71,7.33-.94a.76.76,0,0,0,.26,0c0,.32,0,.65-.07,1-1.61-1.48-3.37-2.08-5.43-.92a3.81,3.81,0,0,0-2.38,3.51c-.09.81.27,1.11,1,1a18.1,18.1,0,0,0,1.94.15C58.65,39.15,60.27,39,61.89,38.94Zm-11.62-.23.21.5c1-.08,2.1.1,2.83-.36.39-.24.08-1.59.09-2.44a6.67,6.67,0,0,0-2.1.62C50.81,37.38,50.6,38.13,50.27,38.71Z" transform="translate(-1.14)"/><path class="cls-2" d="M107.06,49a6.89,6.89,0,0,1,1.82,0c.41.12,1,.61,1,.92s-.47,1.2-.8,1.23a22,22,0,0,1-4.14,0,1.36,1.36,0,0,1-.75-1.11,1.74,1.74,0,0,1,1-1A6.49,6.49,0,0,1,107.06,49Z" transform="translate(-1.14)"/><path class="cls-3" d="M103.35,24c-.19,1.78-.37,3.55-.56,5.33h-2.3c.17-.2.33-.42.52-.61s.52-.51.78-.76l0-1.29L100,24.78h0l-.27-.27h0l-.27-.26h0L99.16,24h0l-.27-.27h0l-.15-.38.18-.17c.74.19,1.48.41,2.23.55S102.62,23.89,103.35,24Z" transform="translate(-1.14)"/><path class="cls-9" d="M60.4,16.64l5-.12,2,.05.5.07v.49l.16,1.8,3.4-.19.46,0,.77,1.59H67a7.87,7.87,0,0,1,.36-1.41c.5-1.05.26-1.59-.93-1.89l-5.69-.07Z" transform="translate(-1.14)"/><path class="cls-11" d="M49.82,39.59l8.07.18c0,.29-.09.58-.14.87L48,40.6Z" transform="translate(-1.14)"/><path class="cls-11" d="M103.19,39.64l7.83,0,1.86,1.06-9.53,0C103.3,40.33,103.24,40,103.19,39.64Z" transform="translate(-1.14)"/><path class="cls-12" d="M60.4,16.64l.33.29c0,3.68,0,7.35-.07,11a.43.43,0,0,0,0,.25l-.26.26a7.06,7.06,0,0,1-.24-1.18c0-2.76,0-5.51-.07-8.27C60.19,18.22,60.29,17.43,60.4,16.64Z" transform="translate(-1.14)"/><path class="cls-13" d="M51.12,25.85c.62.88,1.3,1.43,1.22,1.84a1.94,1.94,0,0,1-1.29,1.22c-.3.07-1.12-.74-1.12-1.16S50.53,26.73,51.12,25.85Z" transform="translate(-1.14)"/><path class="cls-9" d="M72.59,13.69c0,.78-.15,1.45-1.14,1.48l-3.29-.26-.73-.09-.72-1.68c2,0,3.64,0,5.29,0C72.2,13.17,72.4,13.51,72.59,13.69Zm-5.2.23,0,.35h4.57v-.35Z" transform="translate(-1.14)"/><path class="cls-14" d="M112.35,34c-.27-.48-.8-1-.75-1.43s.78-1.15,1.08-1.09a1.81,1.81,0,0,1,1.17,1.16c.06.41-.56.92-.87,1.38Z" transform="translate(-1.14)"/><path class="cls-10" d="M102.6,10.59l1.34.06L105,13.39l-1.61,0C103.12,12.49,102.86,11.54,102.6,10.59Z" transform="translate(-1.14)"/><path class="cls-15" d="M67.43,14.82l.73.09L68,16.64l-.5-.07Z" transform="translate(-1.14)"/><path class="cls-11" d="M48,40.59l-.26.24Z" transform="translate(-1.14)"/><path class="cls-16" d="M103.19,39.64c0,.35.11.69.16,1a6.23,6.23,0,0,1-1.6.43q-21.3,0-42.61,0a4.86,4.86,0,0,1-1.39-.47c0-.29.09-.58.14-.87l4.08,0h.37l1.5-.25a2.29,2.29,0,0,0,.62.17l10.9,0,1,.12.55,0,6.53,0h10l6.36,0,.62-.16Z" transform="translate(-1.14)"/><path class="cls-17" d="M73.31,44c-.14,1-.84,1.08-1.65,1.07S70,45.12,69.88,44c.33-.35.65-1,1-1C71.78,43,73,42.53,73.31,44Z" transform="translate(-1.14)"/><path class="cls-18" d="M101.77,26.63c0,.43,0,.86,0,1.29l-1.86,0h0l-.45-.5-2-1.91-1-1h0l-.26-.27h0L96,24h0l-.27-.27h0l-.27-.27h0L94.66,23h0l-.26-.27h0l-.27-.27h0l-2.3-2.34-.36-.34-1-1h0l-.27-.27h0l-.26-.26h0l-.27-.27h0l-.27-.27h0l-.26-.27h0c-.67-.83-.89-.78-1.3.26h0l-.26.28h0l-.26.27h0l-.27.26h0l-.27.27h0L86.5,19h0l-.27.26h0l-.79.55v0l-.27.27h0l-.27.27h0l-.27.27h0l-.27.27h0l-.54.54,0,0-.47.49-.41.33L80.44,24.8h0l-.27.27h0l-.8.55,0,0-.27.28h0l-.27.27h0l-.27.27h0l-.27.27h0l-.27.27h0l-.54.55v0l-.29.34,0,.09-.23.06-1.58,0c0-.52,0-1,0-1.57h0l.27-.27h0l.26-.26h0l.66-.27.39-.39.27-.4h0l.27-.27h0l4.23-4.22h0l.27-.26h0l.67-.27.65-.65.27-.4h0l.26-.27h0l1.15-1,.69-.62A12,12,0,0,0,87,15.63c.74-.9,1.53-1.36,2.64-.65l0,0,.76.8h0l.27.27h0l.27.26h0l.27.27h0l.27.27h0l.79.55h0l.27.27h0l2.86,2.86.37.35.46.49v0l.55.53h0l.27.27h0l.26.27h0l.27.27h0l.27.27h0l1.06.8h0l.27.27h0l.27.27h0l.27.26h0l.27.27h0Z" transform="translate(-1.14)"/><path class="cls-13" d="M105,13.39l-1.06-2.74c.92-.05,1.86-.1,2.3-1.13a2,2,0,0,0-.59-2.37,3.92,3.92,0,0,1,5.66.64,4.13,4.13,0,0,1-.54,5.71,8,8,0,0,1-1.61.77C108,13.12,106.41,13.58,105,13.39Z" transform="translate(-1.14)"/><path class="cls-19" d="M68,16.64l.21-1.73,3.29.26h0l.08,1.18,0,2.4-3.4.19c0-.6-.11-1.2-.16-1.8Z" transform="translate(-1.14)"/><path class="cls-9" d="M85.7,16.85l-.69.62-.38-.06L83.3,17,72,17l-.31-.36.34,0h12c.52,0,1-.08,1.55-.13Z" transform="translate(-1.14)"/><path class="cls-12" d="M85.7,16.85l-.06-.42a23.91,23.91,0,0,1,2-1.94c.81-.64,1.61-.65,2.08.49-1.11-.71-1.9-.25-2.64.65A12,12,0,0,1,85.7,16.85Z" transform="translate(-1.14)"/><path class="cls-12" d="M95.43,20.52l-2.86-2.86Z" transform="translate(-1.14)"/><path class="cls-12" d="M72.07,16.57l-.34,0-.2-.27-.08-1.18Z" transform="translate(-1.14)"/><path class="cls-12" d="M98.9,23.72l-1.06-.8.91.42Z" transform="translate(-1.14)"/><path class="cls-12" d="M90.47,15.81l-.76-.8Z" transform="translate(-1.14)"/><path class="cls-12" d="M92.3,17.4l-.79-.55Z" transform="translate(-1.14)"/><path class="cls-12" d="M96.26,21.36l-.46-.49Z" transform="translate(-1.14)"/><path class="cls-12" d="M96.8,21.87l-.55-.53Z" transform="translate(-1.14)"/><path class="cls-12" d="M90.73,16.07l-.27-.27Z" transform="translate(-1.14)"/><path class="cls-12" d="M91,16.33l-.27-.26Z" transform="translate(-1.14)"/><path class="cls-12" d="M91.26,16.6,91,16.33Z" transform="translate(-1.14)"/><path class="cls-12" d="M91.52,16.86l-.27-.27Z" transform="translate(-1.14)"/><path class="cls-12" d="M92.57,17.66l-.27-.27Z" transform="translate(-1.14)"/><path class="cls-12" d="M97.85,22.93l-.27-.27Z" transform="translate(-1.14)"/><path class="cls-12" d="M97.59,22.66l-.27-.27Z" transform="translate(-1.14)"/><path class="cls-12" d="M97.32,22.4l-.26-.27Z" transform="translate(-1.14)"/><path class="cls-12" d="M97.06,22.14l-.27-.27Z" transform="translate(-1.14)"/><path class="cls-6" d="M79.11,47.66c.27-.07.48-.21.65-.17.48.11.95.31,1.43.47-.15.18-.29.51-.45.51C80.12,48.49,79.32,48.77,79.11,47.66Z" transform="translate(-1.14)"/><path class="cls-20" d="M105.27,33a1.8,1.8,0,0,1-1.57-1.94,18.2,18.2,0,0,1,.84-8.28,5,5,0,0,1,.94-1.16c.34.4.85.74,1,1.2a18.68,18.68,0,0,1,.79,8.4c-.08.76-.29,1.56-1.63,1.56l1.07-2.61-.88.22-.24-1.27-.34,0Z" transform="translate(-1.14)"/><path class="cls-14" d="M105.77,39.06l-5.27.13c0-1.62,0-3.23,0-4.85a4.23,4.23,0,0,1,3.94.21C105.12,36,106,37.35,105.77,39.06Z" transform="translate(-1.14)"/><path class="cls-20" d="M107.23,39.08c.71-.92-.92-2.34.79-2.77,1-.25,2.43,1.26,2.4,2.22C110.4,39.23,109.54,39.41,107.23,39.08Z" transform="translate(-1.14)"/><path class="cls-21" d="M100.48,34.34c0,1.62,0,3.23,0,4.85,0,.13,0,.27,0,.4l-.62.16c0-3.57,0-7.14,0-10.71L99.93,28l1.86,0c-.26.25-.53.5-.78.76s-.35.41-.52.61c0,.79,0,1.57,0,2.36l0,2Z" transform="translate(-1.14)"/><path class="cls-22" d="M100.47,31.65c0-.79,0-1.57,0-2.36h2.3l.26,2.35Z" transform="translate(-1.14)"/><path class="cls-3" d="M100.47,31.65h2.58l.74,1.58-3.29.43Z" transform="translate(-1.14)"/><path class="cls-23" d="M105.77,39.06c.22-1.71-.65-3.08-1.35-4.51a3.78,3.78,0,0,1,2.38,3.5C106.89,38.86,106.54,39.16,105.77,39.06Z" transform="translate(-1.14)"/><path class="cls-19" d="M99.84,29c0,3.57,0,7.14,0,10.71l-6.36,0-.15-1-1-.49c0-1.86,0-3.74,0-5.62A14.91,14.91,0,0,0,92,30.78a.14.14,0,0,0,0-.14l.27-1.11H84.56l.33,1.11a.14.14,0,0,0,0,.14,7,7,0,0,0-.3,1.32c0,2,0,4.1,0,6.13l-1,.54-.16,1-6.53,0L77,28.2l.23-.34,0-.09.29-.34v0l.54-.55h0l.27-.27h0l.27-.27h0l.27-.27h0l.27-.27h0l.27-.28,0,0,.8-.55h0l.27-.27h0L83,22.19l.41-.33.47-.49,0,0,.54-.54h0l.27-.27h0l.27-.27h0l.27-.27h0l.27-.27v0l.79-.55h0l.27-.26h0l.27-.27h0l.27-.27h0l.27-.26h0l.26-.27h.29c2.63,2.49,5.24,5,7.89,7.48C97.07,26.67,98.47,27.84,99.84,29ZM86.65,27l.34.19v0l.55.27h0l2.07-.05.91-.74.22-.3c1.08-.92,1.07-2.14,0-3.49a.21.21,0,0,0-.17-.17l-.35-.28h0l-.54-.28h0L87.46,22l-.53.27-.3.23-.27.27-.24.3-.28.52c0,.76,0,1.53,0,2.3l.29.52.24.29Z" transform="translate(-1.14)"/><path class="cls-24" d="M72,17,83.3,17c-.06.16-.08.37-.19.48-2.43,2.34-4.81,4.74-7.35,7-1.2,1.05-2.17,2-1.94,3.73H60.92L60.66,28c0-3.67.05-7.34.07-11l5.69.07a7.76,7.76,0,0,1-.35,1.3c-.47,1.08-.13,1.88.92,2h5.75L72,18.71C72,18.13,72,17.55,72,17Z" transform="translate(-1.14)"/><path class="cls-14" d="M61.89,38.94c-1.62.1-3.24.21-4.86.27a18.1,18.1,0,0,1-1.94-.15,6.73,6.73,0,0,1,1.34-4.52c2.06-1.16,3.82-.56,5.43.92Z" transform="translate(-1.14)"/><path class="cls-25" d="M73.82,28.16c-.23-1.7.74-2.68,1.94-3.73,2.54-2.22,4.92-4.62,7.35-7,.11-.11.13-.32.19-.48l1.33.42-.77,1.06h0l-.26.27h0l-.27.4-.65.65-.67.27h0l-.27.26h0l-4.23,4.22h0l-.27.27h0l-.27.4-.39.39-.66.27h0l-.26.26h0l-.27.27h0L75,28Z" transform="translate(-1.14)"/><path class="cls-19" d="M75.37,33.11c-3.63,0-7.27,0-10.91.06-.89,0-1.06-.36-.81-1.23H75.4Z" transform="translate(-1.14)"/><path class="cls-26" d="M75.4,34.73H63.62c-.08-.64-.32-1.21.73-1.2,3.68,0,7.36,0,11,.06Z" transform="translate(-1.14)"/><path class="cls-26" d="M75.7,35.6l0,.52a7.47,7.47,0,0,1-1.37.25c-3.49,0-7,0-10.47,0V35.23H75.35Z" transform="translate(-1.14)"/><path class="cls-26" d="M75.36,39.66l-10.9,0a2.29,2.29,0,0,1-.62-.17l-.06-.81a.32.32,0,0,1,0-.21l11.57,0Z" transform="translate(-1.14)"/><path class="cls-27" d="M63.81,29.53c-.18-.62,0-.87.69-.87q5.53,0,11.07,0c1,0,1,.44.65,1.16l-.82-.07-.23,0H64.07Z" transform="translate(-1.14)"/><path class="cls-26" d="M75.43,31.44H63.82V30.33c3.51,0,7,0,10.54,0a4.32,4.32,0,0,1,1.36.5Z" transform="translate(-1.14)"/><path class="cls-26" d="M63.81,38,64,36.8l11.38.1.29.28,0,.53a8.1,8.1,0,0,1-1.37.27C70.82,38,67.31,38,63.81,38Z" transform="translate(-1.14)"/><path class="cls-28" d="M63.78,38.72l.06.81-1.5.25c0-3.42-.06-6.85,0-10.27,0-.33.35-.65.54-1l.46.19c0,3,0,6,0,8.92C63.32,38,63.62,38.36,63.78,38.72Z" transform="translate(-1.14)"/><path class="cls-21" d="M63.81,38c3.5,0,7,0,10.51,0a8.1,8.1,0,0,0,1.37-.27l.71.87-1,0-11.57,0Z" transform="translate(-1.14)"/><path class="cls-21" d="M75.72,30.85a4.32,4.32,0,0,0-1.36-.5c-3.51,0-7,0-10.54,0V29.8l.25,0H75.28l.12,0,.82.07-.3,1Z" transform="translate(-1.14)"/><path class="cls-12" d="M75.42,36.9,64,36.8l-.22-.42c3.49,0,7,0,10.47,0a7.47,7.47,0,0,0,1.37-.25c.18.18.37.35.56.52Z" transform="translate(-1.14)"/><path class="cls-27" d="M75.4,34.73V33.59l1,.57Z" transform="translate(-1.14)"/><path class="cls-29" d="M75.37,33.11l0-1.17c.35.19.95.32,1,.56C76.53,33.33,75.92,33.23,75.37,33.11Z" transform="translate(-1.14)"/><path class="cls-28" d="M75.39,38.55l1,0c0,.4,0,.8,0,1.2l-1-.12Z" transform="translate(-1.14)"/><path class="cls-15" d="M75.72,30.85l.2,0,.48.53-.11.24-.86-.2Z" transform="translate(-1.14)"/><path class="cls-12" d="M75,28l.47-1.59c0,.53,0,1.05,0,1.57Z" transform="translate(-1.14)"/><path class="cls-21" d="M75.42,36.9l.8-.26-.51.54Z" transform="translate(-1.14)"/><path class="cls-29" d="M75.7,35.6l-.35-.37.9-.07,0,.23Z" transform="translate(-1.14)"/><path class="cls-12" d="M77.23,27.86,77,28.2v-.28Z" transform="translate(-1.14)"/><path class="cls-19" d="M64.07,29.78l-.25,0v-.27Z" transform="translate(-1.14)"/><path class="cls-25" d="M60.66,28l.26.22-.27,0A.43.43,0,0,1,60.66,28Z" transform="translate(-1.14)"/><path class="cls-20" d="M50.27,38.71c.33-.58.54-1.33,1-1.68a6.67,6.67,0,0,1,2.1-.62c0,.85.3,2.2-.09,2.44-.73.46-1.86.28-2.83.36Z" transform="translate(-1.14)"/><path class="cls-23" d="M56.43,34.54a6.73,6.73,0,0,0-1.34,4.52c-.77.1-1.13-.2-1-1A3.81,3.81,0,0,1,56.43,34.54Z" transform="translate(-1.14)"/><path class="cls-12" d="M101.77,26.63,100,24.78Z" transform="translate(-1.14)"/><path class="cls-12" d="M99.43,24.25,99.16,24Z" transform="translate(-1.14)"/><path class="cls-12" d="M99.69,24.51l-.27-.26Z" transform="translate(-1.14)"/><path class="cls-12" d="M100,24.78l-.27-.27Z" transform="translate(-1.14)"/><path class="cls-12" d="M99.16,24l-.27-.27Z" transform="translate(-1.14)"/><path class="cls-25" d="M67,20.3c-1-.12-1.39-.92-.92-2a7.76,7.76,0,0,0,.35-1.3c1.19.3,1.43.84.93,1.89A7.87,7.87,0,0,0,67,20.3Z" transform="translate(-1.14)"/><path class="cls-15" d="M72,17c0,.58,0,1.16-.07,1.74l-.46,0,0-2.4.2.27Z" transform="translate(-1.14)"/><path class="cls-15" d="M68,17.13c0,.6.11,1.2.16,1.8C68.06,18.33,68,17.73,68,17.13Z" transform="translate(-1.14)"/><path class="cls-15" d="M67.39,13.92h4.55v.35H67.36Z" transform="translate(-1.14)"/><path class="cls-9" d="M93.32,38.77l.15,1h-10c0-.35.11-.69.16-1l.54.51h8.68Z" transform="translate(-1.14)"/><path class="cls-27" d="M99.84,29c-1.37-1.2-2.77-2.37-4.1-3.61-2.65-2.47-5.26-5-7.89-7.48l0-.28h0l1.3-.26h0l.26.27h0l.27.27h0l.27.27h0l.26.26h0l.27.27h0l1,1,.36.34,2.3,2.34h0l.27.27h0l.26.27h0l.79.54h0l.27.27h0L96,24h0l.27.26h0l.26.27h0l1,1,2,1.91.45.5h0Z" transform="translate(-1.14)"/><path class="cls-12" d="M77.53,24.53l4.23-4.22Z" transform="translate(-1.14)"/><path class="cls-12" d="M83,22.19,80.44,24.8Z" transform="translate(-1.14)"/><path class="cls-12" d="M94.13,22.42l-2.3-2.34Z" transform="translate(-1.14)"/><path class="cls-12" d="M97.53,25.55l-1-1Z" transform="translate(-1.14)"/><path class="cls-12" d="M89.12,17.42l-1.3.26C88.23,16.64,88.45,16.59,89.12,17.42Z" transform="translate(-1.14)"/><path class="cls-12" d="M83.86,18.47l.77-1.06.38.06Z" transform="translate(-1.14)"/><path class="cls-12" d="M91.47,19.74l-1-1Z" transform="translate(-1.14)"/><path class="cls-12" d="M80.18,25.06l-.8.55Z" transform="translate(-1.14)"/><path class="cls-12" d="M95.45,23.49,94.66,23Z" transform="translate(-1.14)"/><path class="cls-12" d="M78.08,26.91l-.54.55Z" transform="translate(-1.14)"/><path class="cls-12" d="M86.24,19.26l-.79.55Z" transform="translate(-1.14)"/><path class="cls-12" d="M84.41,20.85l-.54.54Z" transform="translate(-1.14)"/><path class="cls-12" d="M83.89,21.37l-.47.49Z" transform="translate(-1.14)"/><path class="cls-21" d="M99.94,28l-.45-.5Z" transform="translate(-1.14)"/><path class="cls-12" d="M76,25.85l.66-.27Z" transform="translate(-1.14)"/><path class="cls-12" d="M82,20.05l.67-.27Z" transform="translate(-1.14)"/><path class="cls-12" d="M77.55,27.43l-.29.34Z" transform="translate(-1.14)"/><path class="cls-12" d="M89.38,17.68l-.26-.27Z" transform="translate(-1.14)"/><path class="cls-12" d="M96,24l-.27-.27Z" transform="translate(-1.14)"/><path class="cls-12" d="M95.71,23.75l-.27-.27Z" transform="translate(-1.14)"/><path class="cls-12" d="M87.82,17.67l0,.28h-.29Z" transform="translate(-1.14)"/><path class="cls-12" d="M89.65,18l-.27-.27Z" transform="translate(-1.14)"/><path class="cls-12" d="M87.56,17.94l-.26.27Z" transform="translate(-1.14)"/><path class="cls-12" d="M94.66,23l-.26-.27Z" transform="translate(-1.14)"/><path class="cls-12" d="M89.91,18.21l-.27-.27Z" transform="translate(-1.14)"/><path class="cls-12" d="M94.4,22.69l-.27-.27Z" transform="translate(-1.14)"/><path class="cls-12" d="M87.3,18.21l-.27.26Z" transform="translate(-1.14)"/><path class="cls-12" d="M90.17,18.47l-.26-.26Z" transform="translate(-1.14)"/><path class="cls-12" d="M83.6,18.73l.26-.27Z" transform="translate(-1.14)"/><path class="cls-12" d="M87,18.47l-.27.27Z" transform="translate(-1.14)"/><path class="cls-12" d="M96.5,24.54l-.26-.27Z" transform="translate(-1.14)"/><path class="cls-12" d="M77.27,24.8l.27-.27Z" transform="translate(-1.14)"/><path class="cls-12" d="M96.24,24.27,96,24Z" transform="translate(-1.14)"/><path class="cls-12" d="M77,25.19l.27-.4Z" transform="translate(-1.14)"/><path class="cls-12" d="M80.44,24.8l-.27.27Z" transform="translate(-1.14)"/><path class="cls-12" d="M79.4,25.59l-.27.28Z" transform="translate(-1.14)"/><path class="cls-12" d="M75.69,26.11l.26-.26Z" transform="translate(-1.14)"/><path class="cls-12" d="M79.13,25.86l-.27.27Z" transform="translate(-1.14)"/><path class="cls-12" d="M75.42,26.38l.27-.27Z" transform="translate(-1.14)"/><path class="cls-12" d="M84.67,20.58l-.27.27Z" transform="translate(-1.14)"/><path class="cls-12" d="M84.93,20.32l-.27.27Z" transform="translate(-1.14)"/><path class="cls-12" d="M78.87,26.12l-.27.27Z" transform="translate(-1.14)"/><path class="cls-12" d="M78.6,26.39l-.27.27Z" transform="translate(-1.14)"/><path class="cls-12" d="M85.2,20.06l-.27.27Z" transform="translate(-1.14)"/><path class="cls-12" d="M81.75,20.31l.27-.26Z" transform="translate(-1.14)"/><path class="cls-12" d="M85.46,19.79l-.27.27Z" transform="translate(-1.14)"/><path class="cls-12" d="M78.34,26.65l-.27.27Z" transform="translate(-1.14)"/><path class="cls-12" d="M86.51,19l-.27.26Z" transform="translate(-1.14)"/><path class="cls-12" d="M86.77,18.73,86.5,19Z" transform="translate(-1.14)"/><path class="cls-12" d="M83.33,19.13l.27-.4Z" transform="translate(-1.14)"/><path class="cls-12" d="M90.44,18.74l-.27-.27Z" transform="translate(-1.14)"/><path class="cls-12" d="M84.14,39.28l-.54-.51,1-.54c0-2,0-4.08,0-6.13a7,7,0,0,1,.3-1.32.26.26,0,0,0,0,.15l.25.44c0,2,0,4,0,6,0,.37.34.73.52,1.09l.48,0h4.54l.49,0c.18-.27.52-.54.52-.82,0-2.16,0-4.32,0-6.48l.31-.25a.17.17,0,0,0,0-.14,14.91,14.91,0,0,1,.26,1.88c0,1.88,0,3.76,0,5.62l1,.49-.5.52a3.67,3.67,0,0,0-.94-.26q-3.41,0-6.8,0A3.54,3.54,0,0,0,84.14,39.28Z" transform="translate(-1.14)"/><path class="cls-12" d="M90.53,22.69a.21.21,0,0,1,.17.17l0,2.46-2,1.32c0-.57-.06-1.13-.1-1.7v-.1l.26-2.13v-.55h.78l.54.28h0Z" transform="translate(-1.14)"/><path class="cls-9" d="M84.89,30.64l-.33-1.11h7.77l-.27,1.11Zm6.74-.44v-.28H85.31v.28Z" transform="translate(-1.14)"/><path class="cls-21" d="M88.71,26.64l2-1.32v1l-.22.3-3.22.24,1-.25Z" transform="translate(-1.14)"/><path class="cls-5" d="M90.73,26.35v-1l0-2.46C91.8,24.21,91.81,25.43,90.73,26.35Z" transform="translate(-1.14)"/><path class="cls-29" d="M84.89,30.64h7.17a.14.14,0,0,1,0,.14.17.17,0,0,1,0,.14H84.9a.26.26,0,0,1,0-.15A.14.14,0,0,1,84.89,30.64Z" transform="translate(-1.14)"/><path class="cls-12" d="M87.29,26.89l3.22-.24-.91.74-2.07.05h0L87,27.18v0l0-.29Z" transform="translate(-1.14)"/><path class="cls-5" d="M85.85,25.93v-2.3l.14.12c0,.69,0,1.38,0,2.07Z" transform="translate(-1.14)"/><path class="cls-5" d="M89.67,22.15H87.56a1.47,1.47,0,0,1-.1-.13Z" transform="translate(-1.14)"/><path class="cls-5" d="M87.53,27.44l2.07-.05Z" transform="translate(-1.14)"/><path class="cls-5" d="M86.14,26.45l-.29-.52.15-.11.27.51Z" transform="translate(-1.14)"/><path class="cls-5" d="M85.84,23.63l.28-.52.14.12-.28.52Z" transform="translate(-1.14)"/><path class="cls-5" d="M86.93,22.31l.53-.27a1.47,1.47,0,0,0,.1.13c0,.07,0,.14,0,.21l-.47.07Z" transform="translate(-1.14)"/><path class="cls-5" d="M87,27.18l.55.27Z" transform="translate(-1.14)"/><path class="cls-5" d="M90.19,22.42l-.54-.28Z" transform="translate(-1.14)"/><path class="cls-5" d="M86.12,23.11l.24-.3.14.14-.24.28Z" transform="translate(-1.14)"/><path class="cls-5" d="M86.36,22.81l.27-.27.13.14L86.5,23Z" transform="translate(-1.14)"/><path class="cls-5" d="M90.53,22.69l-.35-.28Z" transform="translate(-1.14)"/><path class="cls-5" d="M86.63,22.54l.3-.23.12.14-.29.23Z" transform="translate(-1.14)"/><path class="cls-5" d="M86.38,26.74l-.24-.29.13-.12.24.28A.8.8,0,0,1,86.38,26.74Z" transform="translate(-1.14)"/><path class="cls-5" d="M86.65,27l-.27-.27a.8.8,0,0,0,.13-.13l.27.26Z" transform="translate(-1.14)"/><path class="cls-5" d="M87,26.91l0,.29L86.65,27l.13-.14Z" transform="translate(-1.14)"/><path class="cls-19" d="M75.4,29.76l-.12,0h-.11Z" transform="translate(-1.14)"/><path class="cls-29" d="M84.14,39.28a3.54,3.54,0,0,1,.94-.25q3.39,0,6.8,0a3.67,3.67,0,0,1,.94.26Z" transform="translate(-1.14)"/><path class="cls-29" d="M90.74,38.44H86.2c0-1,0-2.11,0-3.16,0-2.87,0-2.87,2.92-2.87,1.69,0,1.69,0,1.47,1.7-.91-.23-1.22.11-1.21,1s.49,1.07,1.24.89Z" transform="translate(-1.14)"/><path class="cls-5" d="M85.72,38.47c-.18-.36-.51-.72-.52-1.09-.06-2,0-4,0-6l6.57-.2c0,2.16.06,4.32,0,6.48,0,.28-.34.55-.52.82V32H85.72Z" transform="translate(-1.14)"/><path class="cls-30" d="M85.72,38.47V32h5.51v6.51l-.49,0c0-.8-.07-1.59-.1-2.39l0-1.94c.22-1.69.22-1.69-1.47-1.7-2.92,0-2.92,0-2.92,2.87,0,1,0,2.11,0,3.16Z" transform="translate(-1.14)"/><path class="cls-9" d="M91.72,31.17l-6.57.2-.25-.44H92Z" transform="translate(-1.14)"/><path class="cls-9" d="M87,26.91l-.24,0-.27-.26-.24-.28L86,25.82c0-.69,0-1.38,0-2.07l.28-.52L86.5,23l.26-.27.29-.23.47-.07.52.44,0-.66h.8c0,.18,0,.37,0,.55l-.26,2.13v.1c-.1.56-.21,1.13-.31,1.7l-1,.25Zm.46-1.59-.18.21c0,.11.11.32.16.32A3.75,3.75,0,0,0,88,25.7Z" transform="translate(-1.14)"/><path class="cls-21" d="M88.6,24.84l.26-2.13Z" transform="translate(-1.14)"/><path class="cls-27" d="M88.3,26.64c.1-.57.21-1.14.31-1.7,0,.57.07,1.13.1,1.7Z" transform="translate(-1.14)"/><path class="cls-15" d="M91.63,30.2H85.31v-.28h6.32Z" transform="translate(-1.14)"/><path class="cls-12" d="M88.07,22.16l0,.66-.52-.44,0-.21Z" transform="translate(-1.14)"/><path class="cls-21" d="M90.61,34.11l0,1.94c-.75.18-1.24.1-1.24-.89S89.7,33.88,90.61,34.11Z" transform="translate(-1.14)"/><path class="cls-29" d="M87.48,25.32l.5.38a3.75,3.75,0,0,1-.52.15s-.11-.21-.16-.32Z" transform="translate(-1.14)"/></g><g id="Layer_2" data-name="Layer 2"><path class="cls-31" d="M33.37,16.72c.08-1.17.14-2.32.26-3.45a1.73,1.73,0,0,1,.4-.84c.63-.73,1.3-1.42,2-2.15.72,1,1.83.92,3,.92C37.25,10.85,36,10.05,36.13,8l.25,0,6.75.09c.34,0,.67.06,1,.08A1.41,1.41,0,0,1,45.25,9a11.74,11.74,0,0,1,1.64,4.7,15.85,15.85,0,0,1,0,4.07A3.12,3.12,0,0,1,45,20.26a21.62,21.62,0,0,1-2.7.95,7.17,7.17,0,0,1-1.47.25c-.5.05-.6-.05-.7-.56-.22-1.18-.41-2.37-.68-3.55a4.5,4.5,0,0,0-.64-1.55,19.37,19.37,0,0,0-1.6-1.9c-.13-.15-.36-.19-.54-.29a2.06,2.06,0,0,0-.19.56c-.05.64-.07,1.27-.08,1.91,0,1-.06,1-1,.94-.32,0-.64-.06-1-.11S33.78,16.79,33.37,16.72Z" transform="translate(-1.14)"/><path class="cls-31" d="M19.45,24.3,14,24.55c-.05-.51-.09-1-.13-1.5,0-.19.06-.31.28-.31h7.26c0,.2,0,.46,0,.72a1,1,0,0,0,1.56.89,8.73,8.73,0,0,0,1-.85.79.79,0,0,1,.45-.19c2.05.08,4.1.16,6.14.26a12.12,12.12,0,0,1,1.35.15c.55.07.84.44,1.08,1l-2.18-.15-5.42-.4a1.54,1.54,0,0,0-.52.06.25.25,0,0,0-.1.45,3.74,3.74,0,0,1,1.4,2.92,10.3,10.3,0,0,1-.35,4.51,6.23,6.23,0,0,0-.14,2.16c.1,1.76.26,3.51.41,5.27a.86.86,0,0,1-.26.77c-.48.46-.91,1-1.37,1.45a.59.59,0,0,1-.34.19l-4.22-.11a.86.86,0,0,1-.84-.68,2.36,2.36,0,0,0-.43-.75,2.27,2.27,0,0,1-.47-1.55A32.27,32.27,0,0,1,18.68,33a3.93,3.93,0,0,0-.07-1.6,24,24,0,0,1-.33-2.53c0-.42,0-.83,0-1.25A3.56,3.56,0,0,1,19,25.34c.2-.28.36-.59.54-.89Zm3.72,5.27V29.4c-.29,0-.58-.07-.88-.09-.46,0-.93,0-1.39-.09-.12,0-.24-.17-.35-.27.1-.09.19-.27.3-.27.84-.07,1.7-.11,2.55-.13.08,0,.23.15.25.25.13.83.25,1.66.35,2.49.05.35.19.6.57.63a.64.64,0,0,0,.69-.46,1.42,1.42,0,0,0,.12-.4,29.26,29.26,0,0,0,.08-3,6.33,6.33,0,0,0-.44-2c-.35-.94-.87-1.17-1.87-1A3.8,3.8,0,0,1,21.26,25a1.14,1.14,0,0,0-1.5.44A5.43,5.43,0,0,0,19,27a7.31,7.31,0,0,0,0,3.51,3.58,3.58,0,0,0,.54,1.09c.09.13.34.17.51.25a4.77,4.77,0,0,0,.22-.52,1,1,0,0,0,0-.3c0-1.21.11-1.33,1.31-1.38Zm-1.11,2.9c-.58,0-1.08,0-1.58,0a1,1,0,0,0-1.07.86A15.85,15.85,0,0,0,19.15,35c-.11,1.19-.21,2.38-.28,3.57a2.78,2.78,0,0,0,.16,1c.18.49.32.5.68.15a9.07,9.07,0,0,0,.67-.72c.4-.5.79-1,1.21-1.5s.63-.6,1.16,0,1,1.22,1.55,1.81a3.69,3.69,0,0,0,.63.47,3,3,0,0,0,.21-.77c0-1.06-.09-2.13-.18-3.2-.08-.8-.2-1.59-.34-2.38s-.37-.87-1.05-.92Zm.1,7.48a2.79,2.79,0,0,0,.64-.48.49.49,0,0,0-.07-.5A1.19,1.19,0,0,0,22,38.8c-.32,0-.65.31-.59.6S21.87,39.75,22.16,40Z" transform="translate(-1.14)"/><path class="cls-31" d="M30.11,9l-.82,0c-.7,0-1.4-.05-2.1-.14A1.17,1.17,0,0,1,26,7.69a.75.75,0,0,1,.18-.58,1.4,1.4,0,0,0,.53-1A2,2,0,0,1,27.81,4.5a2.51,2.51,0,0,0,.88-1,2.81,2.81,0,0,1,4.08-1.32A18.45,18.45,0,0,1,35,3.67a1.7,1.7,0,0,0,.94.39l.45,0c.5,0,.48,0,.41.53a1.11,1.11,0,0,1-.79.91c-.13.05-.25.13-.42.21a2.77,2.77,0,0,1,.42.43c.26.42.08.75-.41.76s-1,0-1.47,0h-.51l0,.1.58.55a1.82,1.82,0,0,0-.44.18,4,4,0,0,0-.51.5,3,3,0,0,1-.26.36,11.53,11.53,0,0,1-2.71,1.88c-.32.16-.61.19-.84-.13s-.12-.53.19-.83Z" transform="translate(-1.14)"/><path class="cls-31" d="M1.14,23.84a5.87,5.87,0,0,1,.65-.26c1.82-.51,3.63-1,5.44-1.52a2.36,2.36,0,0,1,1.93.39c.28.17.55.36.84.51s.58.14.72-.31a9,9,0,0,1,.4-1.24.73.73,0,0,1,1-.39.57.57,0,0,1,.28.44,1.35,1.35,0,0,0,.38,1.17,4.31,4.31,0,0,1,.62.93c.26.57,0,.89-.62.83a.36.36,0,0,0-.14,0l-.57.05a3.17,3.17,0,0,1,.12.49,2.1,2.1,0,0,1,0,.94,1.8,1.8,0,0,0,.17,1.92,1,1,0,0,1,.11.24c.38.76.26,1-.58,1.21l-.18.05c-.76.18-1,0-1-.78a2.82,2.82,0,0,1,.32-1.14,1.7,1.7,0,0,0,.12-1.55c-.19-.49-.38-1-.58-1.47-.1-.26-.26-.31-.5-.15a3,3,0,0,0-.38.24,3.47,3.47,0,0,1-3.12.71c-1.65-.32-3.29-.68-4.94-1a4,4,0,0,1-.49-.17Z" transform="translate(-1.14)"/><path class="cls-31" d="M36.5,20.25c0,.44-.06.79-.08,1.15s-.15.34-.39.24a14.77,14.77,0,0,1-2.07-.8c-1.71-1-3.38-2-5.05-3.06a2.21,2.21,0,0,1-1.05-1.49,2,2,0,0,0-1.51-1.65c-.68-.18-.76-.64-.22-1.08a3.31,3.31,0,0,1,.8-.49,1.47,1.47,0,0,1,2,.67,7.75,7.75,0,0,1,.55,1.79,1.46,1.46,0,0,0,.72,1,9.63,9.63,0,0,0,3.51,1c.7.1,1.39.25,2.08.35a.55.55,0,0,1,.51.55Z" transform="translate(-1.14)"/><path class="cls-31" d="M39.72,20.85A1,1,0,0,1,39,22q-.68.27-1.35.57c-.29.13-.42,0-.46-.25a3.45,3.45,0,0,1-.13-.7c0-2,0-4,.07-6,0-.4.24-.54.53-.27a4.6,4.6,0,0,1,1,1.26A11.8,11.8,0,0,1,39.72,20.85Z" transform="translate(-1.14)"/><path class="cls-31" d="M31.65,22.78c-.61,0-1.1.08-1.6.09l-5.7.09a2.16,2.16,0,0,0-1.47.47c-.39.35-.77.15-.82-.38a1,1,0,0,1,.87-1.28,16.16,16.16,0,0,1,2.2-.3c1.72-.11,3.44-.16,5.16-.25a.46.46,0,0,1,.47.23C31,21.88,31.32,22.29,31.65,22.78Z" transform="translate(-1.14)"/><path class="cls-31" d="M24.69,17.75a7,7,0,0,0-.62.45.41.41,0,0,1-.65,0,.9.9,0,0,1-.15-1.39,3.6,3.6,0,0,1,2.51-1.57,1.31,1.31,0,0,1,1.56.93c.19.58.36,1.18.5,1.77s0,.89-.68.92a11.08,11.08,0,0,1-1.73-.05C24.77,18.74,24.61,18.47,24.69,17.75Z" transform="translate(-1.14)"/><path class="cls-31" d="M33.36,11.56c0,.49-.07,1-.13,1.45-.12,1-.23,2.05-.38,3.07-.09.66-.39.86-1,.65a7.31,7.31,0,0,1-1.34-.6,1.52,1.52,0,0,1-.72-1.72A.85.85,0,0,1,30,14a15,15,0,0,1,3-2.36l.17-.07Z" transform="translate(-1.14)"/><path class="cls-31" d="M28.28,12.23a26.65,26.65,0,0,1,4.46-2.52c.53-.2.69-.17.92.18a.74.74,0,0,1-.14,1,3.76,3.76,0,0,1-.72.6c-.86.54-1.73,1.07-2.6,1.6-.62.38-.8.36-1.3-.16C28.7,12.69,28.5,12.47,28.28,12.23Z" transform="translate(-1.14)"/><path class="cls-31" d="M31.22,20.21c.18.08.36.14.53.23l3.78,2a.37.37,0,0,1,.19.56,3.64,3.64,0,0,1-1.67,1.46c-.13.06-.48-.11-.58-.27-.61-.88-1.19-1.77-1.74-2.68a12,12,0,0,1-.59-1.19Z" transform="translate(-1.14)"/><path class="cls-31" d="M25.31,42.9a1.74,1.74,0,0,1-.48.14H19.52c-.16,0-.45-.16-.46-.26,0-.29.24-.36.47-.37a20.11,20.11,0,0,1,5.14.11,5.45,5.45,0,0,1,.65.21Z" transform="translate(-1.14)"/><path class="cls-31" d="M34.05,11.38a5.86,5.86,0,0,1,.53-2.51.7.7,0,0,1,.56-.31c.16,0,.32.26.46.41s0,.12,0,.18A2.39,2.39,0,0,1,34.05,11.38Z" transform="translate(-1.14)"/><path class="cls-31" d="M42.68,37.24l0,0V37.2Z" transform="translate(-1.14)"/><path class="cls-31" d="M24.15,34.2a2.87,2.87,0,0,1-.44.77,16.87,16.87,0,0,1-1.52,1.28.38.38,0,0,1-.36,0c-.58-.42-1.17-.83-1.71-1.29a1,1,0,0,1,.32-1.72A6.11,6.11,0,0,1,23.38,33C23.89,33.13,24.14,33.48,24.15,34.2Z" transform="translate(-1.14)"/><path class="cls-31" d="M19.5,39.16a1.49,1.49,0,0,1-.08-.4c0-.89.1-1.78.16-2.66a1.61,1.61,0,0,1,.1-.36c.11-.3.35-.41.59-.22a15.12,15.12,0,0,1,1.19,1.07.43.43,0,0,1,.05.41,6.75,6.75,0,0,1-1.83,2.11A.49.49,0,0,1,19.5,39.16Z" transform="translate(-1.14)"/><path class="cls-31" d="M22.46,36.57l1.65-1.35c.12.34.21.54.26.75.16.87.32,1.73.46,2.6a1.63,1.63,0,0,1-.13.55,2.06,2.06,0,0,1-.46-.31C23.65,38.09,23.08,37.36,22.46,36.57Z" transform="translate(-1.14)"/></g><g id="Layer_1" data-name="Layer 1"><path class="cls-31" d="M42.09,29.41a1.76,1.76,0,0,1-1.42.35,1.32,1.32,0,0,0-1.2.32,1.94,1.94,0,0,1-1.8.39c-1.32-.28-2.63-.56-3.94-.88a1.86,1.86,0,0,0-1.9.61,38.93,38.93,0,0,0-4.31,5.43,1.45,1.45,0,0,0-.24.84q.12,7,.23,14.08a.5.5,0,0,1-.33.54c-1,.48-1.94,1-2.91,1.5-.28.15-.54.34-.91.59.34.21.57.38.83.51s.64.26,1,.39h.3l1.95-.61h0l2,0c.63,0,.85-.16.88-.8a11,11,0,0,0,0-1.62,20.92,20.92,0,0,1,.82-7.94,12.51,12.51,0,0,0,.62-4.46,8.49,8.49,0,0,0-.44-2c-.17-.52-.46-.61-1-.45-.33.09-.64.23-1,.34l-.55.13-.06-.12a4.83,4.83,0,0,1,.58-.43A34.93,34.93,0,0,1,34.44,34c2.37-.91,4.72-1.87,7.08-2.82l.89-2Z" transform="translate(-1.14)"/><path class="cls-31" d="M39.35,33a5,5,0,0,0-.54.4.57.57,0,0,0-.2.79c.26.55.53,1.09.79,1.64L41.12,32C40.53,32.36,39.94,32.68,39.35,33Z" transform="translate(-1.14)"/><path class="cls-31" d="M43.78,23.68a.91.91,0,0,0-.61,0c-.52.2-1,.44-1.52.67A23.49,23.49,0,0,1,37,26a6,6,0,0,1-.74.06l0-.16c.44-.18.86-.37,1.3-.53,1.1-.42,2.22-.81,3.31-1.24a3.33,3.33,0,0,0,.81-.53.45.45,0,0,0,.11-.61,1.63,1.63,0,0,0-1.55-.74,12.58,12.58,0,0,0-1.68.63c-.82.36-1.61.77-2.44,1.1a.81.81,0,0,0-.58.57c-.11.48-.28.88-.81,1a.62.62,0,0,0-.22.15l-2.34,2.07a4,4,0,0,0-.35.44,1.12,1.12,0,0,0,.18.14,3.79,3.79,0,0,0,.42.18,37.35,37.35,0,0,0,5.43,1.21,1.29,1.29,0,0,0,1.43-.58c.39-.57.48-.59,1.13-.34a1.4,1.4,0,0,0,1.42-.16L43,27.84l1.7-3.76Z" transform="translate(-1.14)"/><path class="cls-31" d="M43.72,22.67a13.33,13.33,0,0,0,1.14.81l.1.05.41-.91Z" transform="translate(-1.14)"/><polygon class="cls-32" points="60.87 0 50.75 22.43 49.91 24.27 44.73 35.75 42.65 40.36 36.05 55 39.55 55 63.31 0 60.87 0"/><polygon class="cls-33" points="44.73 35.75 49.91 24.27 50.75 22.43 60.87 0 56.92 0 54.43 0 44.22 22.62 43.81 23.53 43.56 24.08 41.87 27.84 41.26 29.18 40.37 31.16 39.98 32.03 38.26 35.84 29.61 55 33.16 55 36.05 55 42.65 40.36 44.73 35.75"/></g><g id="Layer_7" data-name="Layer 7"><path d="M112.25,35.78v-13H110V21.47h1.88L110.83,20a4.2,4.2,0,0,1,.62-1.72,5.53,5.53,0,0,1,1.23-1.41,6.3,6.3,0,0,1,1.62-1,5,5,0,0,1,1.81-.35,9.31,9.31,0,0,1,4.43,1.16,16.34,16.34,0,0,1,1.69,1.08c.63.46,1.32,1,2.08,1.66l-.9,1a14.56,14.56,0,0,0-3.68-2.68,8.1,8.1,0,0,0-3.57-.88,3.74,3.74,0,0,0-1.34.25,4.89,4.89,0,0,0-1.24.7,4.27,4.27,0,0,0-1,1,2,2,0,0,0-.39,1.1l1.18,1.53h2.06v1.32h-1.91v13Z" transform="translate(-1.14)"/><path d="M122.61,27.81a.69.69,0,0,0,.1.42.4.4,0,0,0,.35.14,1.09,1.09,0,0,0,.51-.16,5.84,5.84,0,0,0,.65-.42c.23-.18.46-.37.7-.58l.67-.63c.2-.21.38-.41.53-.6a2.59,2.59,0,0,0,.33-.46,4.25,4.25,0,0,1,1.4,1.59,5.32,5.32,0,0,1,.53,2.46,4.07,4.07,0,0,1-.4,1.79,4.84,4.84,0,0,1-1.07,1.5,5.09,5.09,0,0,1-3.54,1.39,4.64,4.64,0,0,1-2.16-.47,5.25,5.25,0,0,1-1.62-1.27,7.94,7.94,0,0,1-1.17-1.86,16.34,16.34,0,0,1-.8-2.2,21.48,21.48,0,0,1-.55-2.31c-.14-.77-.25-1.48-.35-2.12l1.31-.16a22.53,22.53,0,0,0,.83,4.07,12.24,12.24,0,0,0,1.25,2.82,5.42,5.42,0,0,0,1.56,1.65,3.11,3.11,0,0,0,3.14.23,4.14,4.14,0,0,0,1.16-.82,4.22,4.22,0,0,0,.8-1.16,3.17,3.17,0,0,0,.13-2.37,4.72,4.72,0,0,0-.5-1,5,5,0,0,1-.66.82,6.67,6.67,0,0,1-.91.76,6.18,6.18,0,0,1-1,.57,2.44,2.44,0,0,1-1,.23,1,1,0,0,1-.55-.18,1.85,1.85,0,0,1-.49-.44,2.12,2.12,0,0,1-.36-.57,1.4,1.4,0,0,1-.14-.56V22.79h-6.41V21.47h14.93v1.32h-7.2Z" transform="translate(-1.14)"/><path d="M131.61,35.78v-13h-2.24V21.47h1.88L130.18,20a4.35,4.35,0,0,1,.62-1.72A5.53,5.53,0,0,1,132,16.85a6.19,6.19,0,0,1,1.63-1,4.94,4.94,0,0,1,1.81-.35,9.3,9.3,0,0,1,4.42,1.16,15.33,15.33,0,0,1,1.69,1.08c.63.46,1.33,1,2.09,1.66l-.9,1a14.78,14.78,0,0,0-3.69-2.68,8.1,8.1,0,0,0-3.57-.88,3.78,3.78,0,0,0-1.34.25,4.89,4.89,0,0,0-1.24.7,4.7,4.7,0,0,0-1,1,2,2,0,0,0-.39,1.1l1.19,1.53h2.06v1.32h-1.91v13Z" transform="translate(-1.14)"/><path d="M142.53,22.73a4.32,4.32,0,0,0,.71,1.25,3.08,3.08,0,0,0,.91.76,3.47,3.47,0,0,0,1.1.36,8.53,8.53,0,0,0,1.27.09l.85,0c.31,0,.69,0,1.16-.08l.64.85c-.19.57-.37,1.1-.52,1.59s-.29.95-.4,1.39-.19.88-.25,1.29a8.93,8.93,0,0,0-.08,1.27,10.68,10.68,0,0,0,.16,1.82,15.14,15.14,0,0,0,.58,2.17l-1.24.39a20.31,20.31,0,0,1-.6-2.42,12,12,0,0,1-.22-2.3,13,13,0,0,1,.19-2.28,11.68,11.68,0,0,1,.71-2.35q-1.06,0-1.86-.06a9.28,9.28,0,0,1-1.38-.2,4.18,4.18,0,0,1-1-.35,3.13,3.13,0,0,1-.74-.54,3.73,3.73,0,0,1-.58-.75q-.25-.42-.54-1a2.29,2.29,0,0,0-.69.51,3.48,3.48,0,0,0-.51.7,3.43,3.43,0,0,0-.33.82,3.62,3.62,0,0,0-.11.86,1.81,1.81,0,0,0,.11.6,1.75,1.75,0,0,0,.29.52,1.55,1.55,0,0,0,.45.36,1.14,1.14,0,0,0,.55.13,1.66,1.66,0,0,0,1.57-.88l1-.19c.37.32.67.6.9.83a3.91,3.91,0,0,1,.53.66,1.7,1.7,0,0,1,.25.63,3.49,3.49,0,0,1,.07.77,3.3,3.3,0,0,1-.32,1.41,4.13,4.13,0,0,1-.85,1.21,4.32,4.32,0,0,1-1.22.83,3.49,3.49,0,0,1-1.42.31A4.41,4.41,0,0,1,138.25,32a11.73,11.73,0,0,1-1-1.32,7,7,0,0,1-.77-1.58A10.5,10.5,0,0,1,136,27a20,20,0,0,1-.18-2.9h1.32v.86c0,.26,0,.52,0,.77s0,.49.05.73,0,.49.08.75a6.84,6.84,0,0,0,.57,2,7.5,7.5,0,0,0,1,1.67A5,5,0,0,0,140.19,32a2.69,2.69,0,0,0,1.42.43,2.35,2.35,0,0,0,.92-.2,2.72,2.72,0,0,0,.8-.53,2.66,2.66,0,0,0,.57-.77,1.89,1.89,0,0,0,.22-.89,1.92,1.92,0,0,0-.72-1.54,3.68,3.68,0,0,1-1.05.73,2.91,2.91,0,0,1-1.23.26,2.28,2.28,0,0,1-1.07-.25,2.79,2.79,0,0,1-.84-.65,2.92,2.92,0,0,1-.56-.93,2.88,2.88,0,0,1-.21-1.08,4.17,4.17,0,0,1,1.93-3.74H134.5V21.47h16.25v1.32h-8.22Z" transform="translate(-1.14)"/><path d="M154,31.68a1.88,1.88,0,0,0,.2,1,.66.66,0,0,0,.58.35,2.46,2.46,0,0,0,1-.23,4.3,4.3,0,0,0,.94-.63,5.75,5.75,0,0,0,.84-.92,6.69,6.69,0,0,0,.68-1.12,6.61,6.61,0,0,0,.45-1.22,4.7,4.7,0,0,0,.16-1.22c0-.61-.25-.92-.76-.92a2.14,2.14,0,0,0-1,.41l-.77-.86a3,3,0,0,1,1.82-.78,2.06,2.06,0,0,1,.79.16,1.88,1.88,0,0,1,.65.46,2,2,0,0,1,.43.71,2.52,2.52,0,0,1,.16.93,5.27,5.27,0,0,1-.22,1.49,7.87,7.87,0,0,1-.58,1.5,8.62,8.62,0,0,1-.88,1.37,7,7,0,0,1-1.11,1.13,5.35,5.35,0,0,1-1.25.77,3.31,3.31,0,0,1-1.32.29,2,2,0,0,1-.9-.2,2,2,0,0,1-.67-.54,2.39,2.39,0,0,1-.41-.83,3.51,3.51,0,0,1-.15-1v-9h-2.48V21.47h8.82l.09-.36a2,2,0,0,0,0-.33,1.05,1.05,0,0,0-.59-1,3.88,3.88,0,0,0-1.74-.33l-3.95.28a3.7,3.7,0,0,1-1.21-.2,3.28,3.28,0,0,1-1-.58,3,3,0,0,1-.68-.89,2.65,2.65,0,0,1-.25-1.14,3.19,3.19,0,0,1,.86-1.85l1.07.75a2.47,2.47,0,0,0-.61,1.41c0,.79.82,1.19,2.48,1.19l3.93-.29a3.13,3.13,0,0,1,1.25.24,2.59,2.59,0,0,1,1,.65,3,3,0,0,1,.61,1,3.49,3.49,0,0,1,.22,1.27v.15h1.22v1.32H154Z" transform="translate(-1.14)"/><path d="M160.32,21.47h1.84l.34.24.32.28c.12.11.23.24.36.38s.28.33.44.54V19.35h1.32v2.12h2.27v1.32h-2.27v13h-1.32V24.68a3.35,3.35,0,0,0-.73-1.18,2.75,2.75,0,0,0-1.15-.71h-1.42Z" transform="translate(-1.14)"/><path d="M171.08,32a3.26,3.26,0,0,1-1.48-.32,3.06,3.06,0,0,1-1-.84,3.53,3.53,0,0,1-.61-1.19,4.83,4.83,0,0,1-.2-1.37,4.62,4.62,0,0,1,.21-1.38,3.58,3.58,0,0,1,.61-1.2,3.21,3.21,0,0,1,1-.85,3.25,3.25,0,0,1,1.47-.32,2.84,2.84,0,0,1,2.44,1.42,1.71,1.71,0,0,1,.69-1,1.83,1.83,0,0,1,1-.32,2.11,2.11,0,0,1,.65.11,2.25,2.25,0,0,1,.59.32,2.52,2.52,0,0,1,.84,1.16V22.79H166.44V21.47h14.15v1.32h-2v13h-1.32V28.71a6.91,6.91,0,0,0-.41-1.33,3.27,3.27,0,0,0-.53-.8,1.77,1.77,0,0,0-.65-.49,1.53,1.53,0,0,0-.5-.12.72.72,0,0,0-.44.14,1.42,1.42,0,0,0-.31.37,1.23,1.23,0,0,0-.16.5,7.26,7.26,0,0,0,0,.74,3.62,3.62,0,0,0,0,.56l-1.09.21a4,4,0,0,0-.16-1,2.2,2.2,0,0,0-.42-.91A2.09,2.09,0,0,0,172,26a1.77,1.77,0,0,0-.82-.19,1.89,1.89,0,0,0-.92.21,2.19,2.19,0,0,0-.65.55,2.36,2.36,0,0,0-.38.78,3,3,0,0,0-.13.89,3.22,3.22,0,0,0,.13.93,2.27,2.27,0,0,0,.42.8,2.15,2.15,0,0,0,.69.57,2.06,2.06,0,0,0,1,.21h.32L171.15,32Z" transform="translate(-1.14)"/><path d="M200.2,22.79h-13V21.47H196a1.56,1.56,0,0,0,.27-.82.88.88,0,0,0-.16-.5,1.2,1.2,0,0,0-.46-.35,3.47,3.47,0,0,0-.7-.2,4.83,4.83,0,0,0-.88-.07c-.28,0-.58,0-.89,0l-.91.07-.89.08-.81,0-.44,0a4.25,4.25,0,0,1-1.32-.2,3.47,3.47,0,0,1-1-.54,2.38,2.38,0,0,1-.69-.8,2.19,2.19,0,0,1-.25-1,3.7,3.7,0,0,1,.1-.74c.07-.28.16-.58.28-.92l1.22.41a4.83,4.83,0,0,0-.3,1.18,1.06,1.06,0,0,0,.65,1.06,5.17,5.17,0,0,0,2,.28,7.94,7.94,0,0,0,.83,0l.9-.08.89-.08c.29,0,.59,0,.89,0a5.37,5.37,0,0,1,1.29.15,3.36,3.36,0,0,1,1,.44,2.16,2.16,0,0,1,.7.71,1.9,1.9,0,0,1,.26,1,2.59,2.59,0,0,1-.05.47c0,.17-.08.33-.13.5h2.82Zm-1.15,14.27c-.59-.53-1.13-1-1.65-1.48s-1-.88-1.51-1.27-1-.74-1.48-1.08-1-.64-1.55-.94-1.1-.57-1.7-.83-1.24-.52-1.93-.76l-.77-1.58.94.28,1,.28c.34.09.68.16,1,.22a5.07,5.07,0,0,0,.9.09,5.42,5.42,0,0,0,1.25-.16,4.16,4.16,0,0,0,1.14-.48,2.71,2.71,0,0,0,.82-.83,2,2,0,0,0,.32-1.15,2.85,2.85,0,0,0-.16-1,2.54,2.54,0,0,0-.49-.81,2.51,2.51,0,0,0-.74-.55,2.18,2.18,0,0,0-1-.21,2,2,0,0,0-.91.19,2.57,2.57,0,0,0-.71.49,3,3,0,0,0-.52.62,4.11,4.11,0,0,0-.31.64l-1.32-.47a2.34,2.34,0,0,1,.47-1,4.74,4.74,0,0,1,.9-.89,4.63,4.63,0,0,1,1.12-.64,3.06,3.06,0,0,1,1.13-.24h0a3.74,3.74,0,0,1,1.49.34,3.87,3.87,0,0,1,1.21.86,4,4,0,0,1,.8,1.25,4,4,0,0,1,.29,1.5,3.13,3.13,0,0,1-.91,2.32,5.62,5.62,0,0,1-2.74,1.32,31.49,31.49,0,0,1,6.31,5.09Z" transform="translate(-1.14)"/><path d="M207.13,27.27c0,.7.25,1.05.74,1.05a.67.67,0,0,0,.39-.18,3.52,3.52,0,0,0,.49-.47c.17-.19.35-.4.53-.63s.34-.46.5-.69.3-.44.42-.64.22-.36.28-.47a3.33,3.33,0,0,1,1,.65,4.25,4.25,0,0,1,.72.91,4,4,0,0,1,.42,1.07A5,5,0,0,1,212.8,29a6.09,6.09,0,0,1-.34,2.1,4.7,4.7,0,0,1-1,1.62,4.34,4.34,0,0,1-1.48,1,4.73,4.73,0,0,1-1.89.38,4.4,4.4,0,0,1-2-.47,5.49,5.49,0,0,1-1.63-1.27,8.46,8.46,0,0,1-1.27-1.86,21.28,21.28,0,0,1-1.07-2.5,20.51,20.51,0,0,1-.85-3.84l1.26-.18a13.66,13.66,0,0,0,.26,1.59,17.17,17.17,0,0,0,.55,1.89,16.19,16.19,0,0,0,.82,1.93,9.57,9.57,0,0,0,1.07,1.71,5.35,5.35,0,0,0,1.26,1.22,2.48,2.48,0,0,0,1.43.46,3.43,3.43,0,0,0,1.43-.3,3.78,3.78,0,0,0,1.14-.82,3.63,3.63,0,0,0,.73-1.15,3.45,3.45,0,0,0,.26-1.35,3.37,3.37,0,0,0-.67-2c-.36.42-.65.76-.86,1a5.61,5.61,0,0,1-.6.65,5.13,5.13,0,0,1-.61.46,2.16,2.16,0,0,1-1,.27,1.65,1.65,0,0,1-.79-.19,1.79,1.79,0,0,1-.62-.51,2.42,2.42,0,0,1-.42-.71,2.64,2.64,0,0,1-.14-.84V22.79H199.6V21.47h11a1.5,1.5,0,0,0,0-.2V21a1.67,1.67,0,0,0-.12-.67.9.9,0,0,0-.43-.43,2.63,2.63,0,0,0-.85-.24,12.31,12.31,0,0,0-1.36-.07l-2.62.22a6.07,6.07,0,0,1-3.18-.67,2.17,2.17,0,0,1-1.06-2,6,6,0,0,1,.47-1.69l1.16.44-.35,1.25a1.66,1.66,0,0,0,.25.66,1.21,1.21,0,0,0,.59.4,4.18,4.18,0,0,0,1.12.2c.46,0,1.06.06,1.79.06l2.93-.21a3.19,3.19,0,0,1,1.24.22,2.56,2.56,0,0,1,.91.63,3,3,0,0,1,.56,1,4.37,4.37,0,0,1,.21,1.3h2.64v1.32h-7.35Z" transform="translate(-1.14)"/><path d="M216.22,35.78v-13H214V21.47h1.88L214.79,20a4.35,4.35,0,0,1,.62-1.72,5.53,5.53,0,0,1,1.23-1.41,6.19,6.19,0,0,1,1.63-1,4.94,4.94,0,0,1,1.81-.35,9.3,9.3,0,0,1,4.42,1.16,15.33,15.33,0,0,1,1.69,1.08c.63.46,1.33,1,2.09,1.66l-.9,1a14.78,14.78,0,0,0-3.69-2.68,8.1,8.1,0,0,0-3.57-.88,3.78,3.78,0,0,0-1.34.25,4.89,4.89,0,0,0-1.24.7,4.47,4.47,0,0,0-1,1,2,2,0,0,0-.39,1.1l1.19,1.53h2.05v1.32h-1.91v13Z" transform="translate(-1.14)"/><path d="M222.38,32.41a3,3,0,0,1-1-1.21,3.71,3.71,0,0,1-.31-1.51,4.63,4.63,0,0,1,.27-1.54,4.45,4.45,0,0,1,.77-1.38,4.22,4.22,0,0,1,1.19-1,3.14,3.14,0,0,1,1.54-.38,3.88,3.88,0,0,1,2.21.65,4.78,4.78,0,0,1,1.61,2V22.79h-9.83V21.47H232v1.32h-2v13h-1.32V30.84a8.38,8.38,0,0,0-.46-1.32,7.86,7.86,0,0,0-.79-1.34,4.7,4.7,0,0,0-1-1,2.2,2.2,0,0,0-1.28-.42A2.61,2.61,0,0,0,224,27a2.66,2.66,0,0,0-1.41,1.49,2.74,2.74,0,0,0-.19,1,2.66,2.66,0,0,0,.2,1,2.71,2.71,0,0,0,.66.92Z" transform="translate(-1.14)"/><path d="M231.33,21.47h12.49v1.32h-1.9v13h-1.31v-2a6.68,6.68,0,0,0-1.16-1.4,10.46,10.46,0,0,0-1.57-1.22,11.17,11.17,0,0,0-1.78-.93,8.94,8.94,0,0,0-1.77-.52l-1.16-1.44c.44-.45,1-.95,1.6-1.48s1.33-1.1,2.14-1.7a1.3,1.3,0,0,0-.27-.26c-.15-.13-.34-.29-.57-.46s-.48-.36-.75-.55l-.78-.53c-.25-.16-.46-.3-.65-.4a1.06,1.06,0,0,0-.38-.15h-2.18Zm4.61,1.32.77.52c.25.18.49.36.72.55s.45.41.66.63a5,5,0,0,1,.57.77q-1.18.94-2.1,1.74c-.62.53-1.15,1-1.6,1.47.7.22,1.29.43,1.78.62a8.77,8.77,0,0,1,1.33.69,8.3,8.3,0,0,1,1.19.94c.39.36.84.81,1.35,1.34V22.79Z" transform="translate(-1.14)"/><path d="M235.48,37a1.37,1.37,0,0,1,1.43,1.44,1.41,1.41,0,0,1-.4,1,1.54,1.54,0,0,1-2.07,0,1.44,1.44,0,0,1-.39-1,1.41,1.41,0,0,1,.39-1A1.38,1.38,0,0,1,235.48,37Z" transform="translate(-1.14)"/><path d="M247.38,32.41a2.88,2.88,0,0,1-1-1.21,3.72,3.72,0,0,1-.32-1.51,4.71,4.71,0,0,1,1-2.92,4.37,4.37,0,0,1,1.19-1,3.17,3.17,0,0,1,1.54-.38,3.94,3.94,0,0,1,2.22.65,4.76,4.76,0,0,1,1.6,2V22.79h-9.82V21.47H257v1.32H255v13h-1.32V30.84a6.75,6.75,0,0,0-.46-1.32,7.2,7.2,0,0,0-.78-1.34,4.54,4.54,0,0,0-1.06-1,2.16,2.16,0,0,0-1.28-.42A2.64,2.64,0,0,0,249,27a2.93,2.93,0,0,0-.85.61,2.86,2.86,0,0,0-.75,1.89,2.86,2.86,0,0,0,.2,1,2.71,2.71,0,0,0,.66.92Z" transform="translate(-1.14)"/></g></svg>